<svg
                  width="32"
                  height="28"
                  viewBox="0 0 32 28"
                  fill="none"
                  xmlns="http://www.w3.org/2000/svg"
                >
                  <path
                    d="M31.5987 26.0938L16.9737 0.78125C16.7557 0.405078 16.3795 0.21875 15.9998 0.21875C15.6202 0.21875 15.2405 0.405078 15.026 0.78125L0.401025 26.0938C-0.0313967 26.8461 0.510009 27.7812 1.37485 27.7812H30.6248C31.4897 27.7812 32.0311 26.8461 31.5987 26.0938ZM14.8748 10.625C14.8748 10.4703 15.0014 10.3438 15.1561 10.3438H16.8436C16.9983 10.3438 17.1248 10.4703 17.1248 10.625V17.0938C17.1248 17.2484 16.9983 17.375 16.8436 17.375H15.1561C15.0014 17.375 14.8748 17.2484 14.8748 17.0938V10.625ZM15.9998 23C15.5583 22.991 15.1378 22.8092 14.8287 22.4937C14.5196 22.1783 14.3464 21.7542 14.3464 21.3125C14.3464 20.8708 14.5196 20.4467 14.8287 20.1313C15.1378 19.8158 15.5583 19.634 15.9998 19.625C16.4414 19.634 16.8619 19.8158 17.171 20.1313C17.4801 20.4467 17.6533 20.8708 17.6533 21.3125C17.6533 21.7542 17.4801 22.1783 17.171 22.4937C16.8619 22.8092 16.4414 22.991 15.9998 23Z"
                    fill="#FFAC33"
                    fill-opacity="0.85"
                  />
                </svg>